<svg width="120" height="116" viewBox="0 0 120 116" fill="none" xmlns="http://www.w3.org/2000/svg">
<g clip-path="url(#clip0_128_2)">
<path d="M84.4941 78.7791L80.6357 76.2499C82.8119 72.4715 84.3269 68.3305 85.1284 63.9698L89.1691 64.5193C89.8147 64.6077 90.4412 64.4511 90.9109 64.0838C91.3806 63.7165 91.655 63.1686 91.6738 62.5607C91.6925 61.9529 91.454 61.3348 91.0107 60.8424C90.5675 60.3501 89.9558 60.0238 89.3103 59.9354L81.4257 58.1681L50.7485 38.0593L45.814 31.4237C45.4754 30.867 44.9322 30.4363 44.3039 30.2262C43.6756 30.0162 43.0136 30.0441 42.4637 30.3037C41.9137 30.5634 41.5208 31.0335 41.3714 31.6108C41.222 32.188 41.3282 32.8251 41.6669 33.3818L43.8548 36.9417C40.1842 39.4143 36.9959 42.4487 34.3985 45.9416L30.3925 43.3157C29.8334 42.9492 29.1687 42.7935 28.5449 42.8828C27.921 42.9722 27.389 43.2993 27.0659 43.7922C26.7428 44.2851 26.655 44.9034 26.822 45.5112C26.9889 46.1189 27.3968 46.6662 27.956 47.0328L32.0252 49.7001C29.5945 53.8299 28.2228 58.5292 28.0085 63.4614L22.4156 63.3026C22.0697 63.2494 21.7244 63.2662 21.4026 63.3517C21.0809 63.4372 20.7901 63.5896 20.5496 63.7986C20.3092 64.0076 20.1246 64.2685 20.0083 64.5639C19.8919 64.8592 19.8465 65.1822 19.8749 65.5113C19.9033 65.8405 20.005 66.1681 20.1732 66.4725C20.3414 66.7769 20.5722 67.0509 20.8501 67.2764C21.1281 67.5019 21.4469 67.6735 21.7853 67.78C22.1236 67.8865 22.4738 67.9252 22.8123 67.8937L28.2633 68.0392C28.7965 71.2575 30.0022 74.4145 31.8074 77.3196C33.6127 80.2246 35.9801 82.8174 38.7666 84.9413L61.4262 50.3727L65.643 53.1368L42.9834 87.7054C46.0364 89.4159 49.3526 90.5569 52.7322 91.0598C56.1118 91.5627 59.4849 91.417 62.648 90.6314L64.9803 95.5347C65.1154 95.8239 65.3063 96.0913 65.5422 96.3218C65.7781 96.5523 66.0543 96.7414 66.3552 96.8781C66.656 97.0148 66.9755 97.0966 67.2955 97.1188C67.6155 97.141 67.9296 97.1031 68.22 97.0073C68.5104 96.9116 68.7713 96.7598 68.9879 96.5606C69.2046 96.3615 69.3726 96.1189 69.4824 95.8467C69.5923 95.5745 69.6418 95.278 69.6281 94.9742C69.6145 94.6704 69.538 94.3652 69.4029 94.0761L67.065 89.0894C71.5032 86.916 75.2625 83.7722 78.0727 79.8841L82.0576 82.4961C82.6168 82.8627 83.2814 83.0184 83.9053 82.929C84.5291 82.8397 85.0611 82.5126 85.3842 82.0197C85.7073 81.5267 85.7951 80.9084 85.6281 80.3007C85.4612 79.693 85.0533 79.1456 84.4941 78.7791ZM45.248 47.0484C45.7179 46.3316 46.4183 45.789 47.2607 45.4891C48.1032 45.1893 49.0498 45.1457 49.9808 45.3638C50.9119 45.582 51.7856 46.0521 52.4914 46.7147C53.1973 47.3773 53.7036 48.2027 53.9464 49.0864C54.1891 49.9702 54.1574 50.8726 53.8552 51.6796C53.5531 52.4866 52.994 53.1619 52.2487 53.6201C51.5035 54.0784 50.6055 54.299 49.6683 54.254C48.7312 54.209 47.797 53.9005 46.9838 53.3675C45.8934 52.6528 45.0979 51.5855 44.7724 50.4004C44.4469 49.2153 44.618 48.0096 45.248 47.0484ZM39.9215 69.3838C39.2627 68.9519 38.7315 68.3575 38.3952 67.6758C38.0588 66.994 37.9325 66.2555 38.0321 65.5537C38.1316 64.8518 38.4527 64.2182 38.9546 63.7328C39.4565 63.2474 40.1168 62.9322 40.8519 62.8269C41.587 62.7216 42.3639 62.831 43.0843 63.1413C43.8048 63.4516 44.4365 63.9488 44.8995 64.57C45.3625 65.1913 45.6361 65.9087 45.6856 66.6316C45.7351 67.3544 45.5583 68.0502 45.1776 68.631C44.6671 69.4098 43.8266 69.9266 42.8409 70.0678C41.8551 70.209 40.805 69.963 39.9215 69.3838ZM57.6953 81.0345C57.0332 80.6057 56.4979 80.0131 56.1573 79.3318C55.8168 78.6504 55.6863 77.9111 55.7824 77.2074C55.8785 76.5038 56.197 75.8676 56.6973 75.3794C57.1976 74.8913 57.8573 74.5732 58.5928 74.4655C59.3282 74.3578 60.1063 74.4653 60.8283 74.7745C61.5504 75.0836 62.1839 75.5804 62.6485 76.2019C63.1131 76.8234 63.3879 77.5417 63.4381 78.2655C63.4883 78.9894 63.3116 79.6863 62.9304 80.2678C62.4199 81.0466 61.5793 81.5635 60.5936 81.7047C59.6079 81.8458 58.5578 81.5998 57.6743 81.0207L57.6953 81.0345ZM69.5437 68.1554C68.7305 67.6224 68.075 66.8888 67.6599 66.0474C67.2448 65.206 67.0889 64.2946 67.2118 63.4284C67.3347 62.5622 67.7309 61.7801 68.3504 61.1811C68.9698 60.5821 69.7847 60.193 70.6919 60.063C71.5991 59.9331 72.558 60.0681 73.4472 60.4511C74.3363 60.834 75.116 61.4476 75.6874 62.2144C76.2589 62.9811 76.5965 63.8666 76.6576 64.7587C76.7187 65.6508 76.5005 66.5095 76.0307 67.2263C75.4006 68.1875 74.3632 68.8254 73.1467 68.9996C71.9301 69.1739 70.6341 68.8702 69.5437 68.1554Z" fill="white"/>
<path d="M61.1266 24.2963C61.6325 24.4377 62.1511 24.4892 62.6549 24.4478C63.1135 25.19 63.505 25.9624 63.8248 26.7558C64.2044 27.7597 64.4915 28.7838 64.6827 29.8158C61.2643 30.1437 57.9442 30.8566 54.7898 31.94C53.252 32.4466 53.4202 34.4433 55.0437 35.5075L82.0101 53.1839C83.6336 54.2481 85.5317 53.6057 85.3827 51.9935C85.1071 48.6142 84.4101 45.2316 83.3064 41.9173C84.2863 41.693 85.2952 41.5542 86.3215 41.5023C87.1766 41.479 88.0411 41.5299 88.9045 41.6543C89.1993 42.5055 89.7746 43.2711 90.5394 43.8301C91.3043 44.3891 92.215 44.7097 93.1275 44.7409C94.04 44.7722 94.9022 44.5125 95.5778 44.0029C96.2533 43.4933 96.7036 42.7628 96.8574 41.9271C97.0112 41.0913 96.8597 40.1981 96.4269 39.3885C95.9941 38.579 95.3048 37.8994 94.4678 37.4573C93.6309 37.0152 92.6943 36.8358 91.806 36.9475C90.9177 37.0592 90.1286 37.4556 89.5634 38.074C88.2972 37.8551 87.0255 37.7607 85.7692 37.7923C84.4244 37.856 83.1032 38.0396 81.8226 38.3407C80.7175 35.8123 78.8918 33.5627 76.57 31.8685C74.0488 30.4259 71.2216 29.6717 68.4366 29.6991C68.1973 28.3718 67.8297 27.0544 67.3385 25.7642C66.8662 24.5995 66.2724 23.4711 65.5665 22.3973C65.8778 21.6921 65.9399 20.8868 65.7445 20.0914C65.5491 19.2961 65.1056 18.5493 64.4746 17.9532C63.8436 17.3571 63.0559 16.9407 62.2189 16.7607C61.382 16.5808 60.5366 16.6461 59.7982 16.9478C59.0598 17.2495 58.4643 17.7728 58.0931 18.4464C57.722 19.1199 57.5931 19.9109 57.7243 20.7112C57.8554 21.5115 58.24 22.2823 58.8257 22.9182C59.4114 23.5541 60.1696 24.0242 60.9968 24.2643L61.1266 24.2963Z" fill="white"/>
</g>
<defs>
<clipPath id="clip0_128_2">
<rect width="90.7558" height="80" fill="white" transform="translate(43.8572 -1) rotate(33.2447)"/>
</clipPath>
</defs>
</svg>
