<svg width="209" height="82" viewBox="0 0 209 82" fill="none" xmlns="http://www.w3.org/2000/svg">
<g clip-path="url(#clip0_496_492)">
<path d="M59.146 56.014L56.4451 54.2436C57.9685 51.5987 59.0289 48.7 59.59 45.6475L62.4185 46.0322C62.8704 46.0941 63.309 45.9844 63.6378 45.7273C63.9666 45.4702 64.1587 45.0867 64.1718 44.6612C64.1849 44.2357 64.0179 43.803 63.7077 43.4583C63.3974 43.1137 62.9692 42.8853 62.5173 42.8234L56.9981 41.5863L35.5241 27.5102L32.0699 22.8652C31.8329 22.4756 31.4526 22.174 31.0128 22.027C30.573 21.88 30.1097 21.8995 29.7247 22.0813C29.3398 22.263 29.0647 22.5921 28.9601 22.9962C28.8555 23.4003 28.9299 23.8462 29.1669 24.2359L30.6985 26.7278C28.1291 28.4587 25.8973 30.5828 24.0791 33.0278L21.2749 31.1897C20.8835 30.9331 20.4182 30.8241 19.9815 30.8866C19.5448 30.9492 19.1724 31.1782 18.9463 31.5232C18.7201 31.8682 18.6587 32.3011 18.7755 32.7265C18.8924 33.1519 19.1779 33.535 19.5694 33.7916L22.4178 35.6587C20.7163 38.5496 19.7561 41.8391 19.6061 45.2917L15.691 45.1805C15.4489 45.1433 15.2072 45.155 14.982 45.2148C14.7567 45.2747 14.5532 45.3813 14.3849 45.5277C14.2166 45.674 14.0874 45.8566 14.0059 46.0633C13.9245 46.2701 13.8927 46.4962 13.9126 46.7266C13.9325 46.957 14.0037 47.1864 14.1214 47.3994C14.2391 47.6125 14.4006 47.8043 14.5952 47.9621C14.7898 48.12 15.013 48.2401 15.2498 48.3147C15.4867 48.3892 15.7318 48.4163 15.9687 48.3943L19.7845 48.4961C20.1577 50.7489 21.0017 52.9588 22.2653 54.9923C23.529 57.0259 25.1862 58.8408 27.1368 60.3276L42.9985 36.1296L45.9502 38.0644L30.0885 62.2624C32.2256 63.4598 34.547 64.2585 36.9127 64.6105C39.2784 64.9625 41.6396 64.8605 43.8538 64.3106L45.4864 67.7429C45.5809 67.9454 45.7145 68.1326 45.8797 68.2939C46.0448 68.4553 46.2382 68.5876 46.4488 68.6833C46.6593 68.779 46.883 68.8363 47.107 68.8518C47.331 68.8673 47.5509 68.8408 47.7541 68.7738C47.9574 68.7067 48.1401 68.6005 48.2917 68.4611C48.4433 68.3217 48.5609 68.1519 48.6378 67.9613C48.7147 67.7708 48.7494 67.5633 48.7398 67.3506C48.7303 67.138 48.6767 66.9243 48.5822 66.7219L46.9457 63.2312C50.0524 61.7099 52.6839 59.5092 54.651 56.7875L57.4405 58.6159C57.8319 58.8725 58.2971 58.9815 58.7338 58.919C59.1705 58.8564 59.5429 58.6275 59.7691 58.2824C59.9953 57.9374 60.0567 57.5045 59.9398 57.0791C59.823 56.6537 59.5374 56.2706 59.146 56.014ZM31.6738 33.8025C32.0026 33.3008 32.4929 32.9209 33.0827 32.711C33.6724 32.5012 34.335 32.4706 34.9867 32.6233C35.6385 32.776 36.25 33.1051 36.7442 33.5689C37.2383 34.0328 37.5927 34.6105 37.7626 35.2291C37.9325 35.8478 37.9103 36.4795 37.6988 37.0444C37.4873 37.6093 37.0959 38.082 36.5742 38.4028C36.0526 38.7235 35.424 38.8779 34.768 38.8465C34.112 38.815 33.458 38.599 32.8888 38.2259C32.1255 37.7256 31.5687 36.9785 31.3408 36.1489C31.113 35.3194 31.2327 34.4754 31.6738 33.8025ZM27.9452 49.4373C27.484 49.135 27.1122 48.7189 26.8768 48.2417C26.6413 47.7645 26.5529 47.2475 26.6226 46.7562C26.6923 46.2649 26.917 45.8214 27.2684 45.4816C27.6197 45.1418 28.0819 44.9212 28.5965 44.8475C29.111 44.7738 29.6548 44.8504 30.1592 45.0676C30.6635 45.2847 31.1057 45.6328 31.4298 46.0677C31.7539 46.5026 31.9454 47.0048 31.9801 47.5107C32.0147 48.0167 31.891 48.5038 31.6245 48.9103C31.2671 49.4555 30.6787 49.8173 29.9887 49.9161C29.2987 50.0149 28.5637 49.8427 27.9452 49.4373ZM40.3869 57.5928C39.9234 57.2926 39.5487 56.8778 39.3103 56.4009C39.0719 55.924 38.9805 55.4064 39.0478 54.9139C39.1151 54.4213 39.338 53.976 39.6882 53.6343C40.0385 53.2926 40.5003 53.0699 41.0151 52.9945C41.5299 52.9191 42.0745 52.9944 42.58 53.2108C43.0854 53.4272 43.5288 53.7749 43.8541 54.21C44.1793 54.6451 44.3717 55.1478 44.4068 55.6545C44.4419 56.1612 44.3182 56.649 44.0514 57.0561C43.6941 57.6013 43.1057 57.9631 42.4157 58.0619C41.7257 58.1607 40.9906 57.9885 40.3721 57.5831L40.3869 57.5928ZM48.6807 48.5775C48.1115 48.2044 47.6526 47.6908 47.3621 47.1018C47.0715 46.5129 46.9623 45.8748 47.0484 45.2685C47.1344 44.6622 47.4118 44.1147 47.8454 43.6954C48.279 43.2761 48.8494 43.0037 49.4845 42.9128C50.1195 42.8218 50.7907 42.9163 51.4131 43.1844C52.0356 43.4525 52.5813 43.882 52.9813 44.4187C53.3813 44.9555 53.6177 45.5752 53.6605 46.1997C53.7032 46.8242 53.5505 47.4253 53.2216 47.9271C52.7806 48.5999 52.0544 49.0464 51.2028 49.1684C50.3512 49.2904 49.444 49.0778 48.6807 48.5775Z" fill="#047857"/>
<path d="M42.7886 17.8761C43.1428 17.9751 43.5058 18.0111 43.8585 17.9822C44.1794 18.5017 44.4535 19.0424 44.6774 19.5978C44.9431 20.3005 45.144 21.0174 45.2779 21.7397C42.885 21.9693 40.561 22.4683 38.3529 23.2267C37.2764 23.5813 37.3941 24.979 38.5306 25.7239L57.4071 38.0974C58.5435 38.8424 59.8722 38.3927 59.7679 37.2642C59.575 34.8986 59.0871 32.5308 58.3145 30.2108C59.0004 30.0538 59.7067 29.9566 60.425 29.9203C61.0236 29.904 61.6288 29.9396 62.2332 30.0267C62.4395 30.6225 62.8422 31.1585 63.3776 31.5498C63.913 31.9411 64.5505 32.1655 65.1892 32.1874C65.828 32.2093 66.4316 32.0275 66.9044 31.6707C67.3773 31.314 67.6925 30.8027 67.8002 30.2177C67.9078 29.6326 67.8018 29.0073 67.4988 28.4407C67.1959 27.874 66.7133 27.3983 66.1275 27.0888C65.5417 26.7793 64.886 26.6538 64.2642 26.732C63.6424 26.8101 63.09 27.0876 62.6944 27.5205C61.808 27.3673 60.9179 27.3012 60.0384 27.3233C59.0971 27.3679 58.1723 27.4964 57.2758 27.7072C56.5023 25.9373 55.2243 24.3626 53.599 23.1767C51.8342 22.1668 49.8552 21.6389 47.9056 21.6581C47.7381 20.7289 47.4808 19.8068 47.1369 18.9036C46.8064 18.0884 46.3907 17.2985 45.8966 16.5468C46.1144 16.0532 46.158 15.4895 46.0212 14.9327C45.8844 14.3759 45.5739 13.8532 45.1322 13.436C44.6906 13.0187 44.1391 12.7272 43.5533 12.6012C42.9674 12.4752 42.3756 12.521 41.8587 12.7322C41.3418 12.9433 40.925 13.3097 40.6652 13.7812C40.4054 14.2526 40.3152 14.8063 40.407 15.3665C40.4988 15.9268 40.768 16.4663 41.178 16.9114C41.588 17.3566 42.1187 17.6857 42.6977 17.8537L42.7886 17.8761Z" fill="#047857"/>
</g>
<path d="M101.976 52.288C101.165 52.288 100.546 52.064 100.12 51.616C99.6929 51.168 99.4795 50.5387 99.4795 49.728V33.536H93.8155C93.1542 33.536 92.6422 33.3547 92.2795 32.992C91.9169 32.6293 91.7355 32.128 91.7355 31.488C91.7355 30.8267 91.9169 30.3253 92.2795 29.984C92.6422 29.6213 93.1542 29.44 93.8155 29.44H110.104C110.765 29.44 111.277 29.6213 111.64 29.984C112.002 30.3253 112.184 30.8267 112.184 31.488C112.184 32.128 112.002 32.6293 111.64 32.992C111.277 33.3547 110.765 33.536 110.104 33.536H104.44V49.728C104.44 50.5387 104.226 51.168 103.8 51.616C103.394 52.064 102.786 52.288 101.976 52.288ZM116.914 52C116.082 52 115.442 51.776 114.994 51.328C114.546 50.88 114.322 50.24 114.322 49.408V32.032C114.322 31.2 114.546 30.56 114.994 30.112C115.442 29.664 116.082 29.44 116.914 29.44H128.082C128.722 29.44 129.202 29.6107 129.522 29.952C129.864 30.272 130.034 30.7413 130.034 31.36C130.034 32 129.864 32.4907 129.522 32.832C129.202 33.152 128.722 33.312 128.082 33.312H119.058V38.592H127.346C128.008 38.592 128.498 38.7627 128.818 39.104C129.16 39.424 129.33 39.904 129.33 40.544C129.33 41.184 129.16 41.6747 128.818 42.016C128.498 42.336 128.008 42.496 127.346 42.496H119.058V48.128H128.082C128.722 48.128 129.202 48.2987 129.522 48.64C129.864 48.96 130.034 49.4293 130.034 50.048C130.034 50.688 129.864 51.1787 129.522 51.52C129.202 51.84 128.722 52 128.082 52H116.914ZM136.193 52.288C135.383 52.288 134.764 52.064 134.337 51.616C133.911 51.168 133.697 50.5387 133.697 49.728V31.968C133.697 31.136 133.911 30.5067 134.337 30.08C134.785 29.6533 135.415 29.44 136.225 29.44H144.001C146.519 29.44 148.46 30.048 149.825 31.264C151.191 32.48 151.873 34.176 151.873 36.352C151.873 37.76 151.564 38.976 150.945 40C150.327 41.024 149.431 41.8133 148.257 42.368C147.105 42.9227 145.687 43.2 144.001 43.2L144.257 42.656H145.569C146.465 42.656 147.244 42.88 147.905 43.328C148.588 43.7547 149.175 44.416 149.665 45.312L151.649 48.992C151.948 49.5253 152.087 50.048 152.065 50.56C152.044 51.072 151.852 51.488 151.489 51.808C151.127 52.128 150.593 52.288 149.889 52.288C149.185 52.288 148.609 52.1387 148.161 51.84C147.735 51.5413 147.351 51.0827 147.009 50.464L143.937 44.8C143.617 44.2027 143.223 43.7973 142.753 43.584C142.305 43.3707 141.751 43.264 141.089 43.264H138.657V49.728C138.657 50.5387 138.444 51.168 138.017 51.616C137.612 52.064 137.004 52.288 136.193 52.288ZM138.657 39.68H143.105C144.428 39.68 145.42 39.4133 146.081 38.88C146.764 38.3467 147.105 37.5467 147.105 36.48C147.105 35.4347 146.764 34.6453 146.081 34.112C145.42 33.5787 144.428 33.312 143.105 33.312H138.657V39.68ZM163.226 52.288C162.415 52.288 161.796 52.064 161.37 51.616C160.943 51.168 160.73 50.5387 160.73 49.728V33.536H155.066C154.404 33.536 153.892 33.3547 153.53 32.992C153.167 32.6293 152.986 32.128 152.986 31.488C152.986 30.8267 153.167 30.3253 153.53 29.984C153.892 29.6213 154.404 29.44 155.066 29.44H171.354C172.015 29.44 172.527 29.6213 172.89 29.984C173.252 30.3253 173.434 30.8267 173.434 31.488C173.434 32.128 173.252 32.6293 172.89 32.992C172.527 33.3547 172.015 33.536 171.354 33.536H165.69V49.728C165.69 50.5387 165.476 51.168 165.05 51.616C164.644 52.064 164.036 52.288 163.226 52.288ZM182.918 52.352C182.022 52.352 181.104 52.2773 180.166 52.128C179.248 52 178.363 51.808 177.51 51.552C176.678 51.296 175.931 50.976 175.27 50.592C174.8 50.336 174.47 50.0053 174.278 49.6C174.086 49.1733 174.011 48.7467 174.054 48.32C174.118 47.8933 174.278 47.52 174.534 47.2C174.811 46.8587 175.152 46.6453 175.558 46.56C175.984 46.4533 176.454 46.528 176.966 46.784C177.84 47.2747 178.79 47.6373 179.814 47.872C180.859 48.1067 181.894 48.224 182.918 48.224C184.475 48.224 185.584 47.9893 186.246 47.52C186.907 47.0293 187.238 46.4213 187.238 45.696C187.238 45.0773 187.003 44.5867 186.534 44.224C186.064 43.8613 185.243 43.552 184.07 43.296L180.454 42.528C178.406 42.1013 176.88 41.376 175.878 40.352C174.896 39.3067 174.406 37.9413 174.406 36.256C174.406 35.1893 174.63 34.2187 175.078 33.344C175.526 32.4693 176.155 31.712 176.966 31.072C177.776 30.432 178.736 29.9413 179.846 29.6C180.976 29.2587 182.214 29.088 183.558 29.088C184.752 29.088 185.926 29.2373 187.078 29.536C188.23 29.8133 189.243 30.2293 190.118 30.784C190.544 31.04 190.832 31.3707 190.982 31.776C191.152 32.16 191.206 32.5547 191.142 32.96C191.099 33.344 190.939 33.6853 190.662 33.984C190.406 34.2827 190.075 34.4747 189.67 34.56C189.264 34.6453 188.774 34.5493 188.198 34.272C187.494 33.9093 186.747 33.6427 185.958 33.472C185.168 33.3013 184.358 33.216 183.526 33.216C182.63 33.216 181.862 33.3333 181.222 33.568C180.603 33.8027 180.123 34.1333 179.782 34.56C179.462 34.9867 179.302 35.4773 179.302 36.032C179.302 36.6507 179.526 37.152 179.974 37.536C180.422 37.92 181.2 38.2293 182.31 38.464L185.926 39.232C188.016 39.68 189.574 40.4053 190.598 41.408C191.622 42.3893 192.134 43.6907 192.134 45.312C192.134 46.3787 191.92 47.3493 191.494 48.224C191.067 49.0773 190.448 49.8133 189.638 50.432C188.827 51.0507 187.856 51.5307 186.726 51.872C185.595 52.192 184.326 52.352 182.918 52.352Z" fill="#047857"/>
<defs>
<clipPath id="clip0_496_492">
<rect width="63.5291" height="56" fill="white" transform="translate(30.7002 0.168701) rotate(33.2447)"/>
</clipPath>
</defs>
</svg>
