<svg width="40" height="40" viewBox="0 0 40 40" fill="none" xmlns="http://www.w3.org/2000/svg">
<path d="M16.875 13.125C16.875 12.6305 17.0216 12.1472 17.2963 11.7361C17.571 11.325 17.9615 11.0045 18.4183 10.8153C18.8751 10.6261 19.3778 10.5766 19.8627 10.673C20.3477 10.7695 20.7931 11.0076 21.1428 11.3572C21.4924 11.7069 21.7305 12.1523 21.827 12.6373C21.9234 13.1222 21.8739 13.6249 21.6847 14.0817C21.4955 14.5385 21.1751 14.929 20.7639 15.2037C20.3528 15.4784 19.8695 15.625 19.375 15.625C18.712 15.625 18.0761 15.3616 17.6072 14.8928C17.1384 14.4239 16.875 13.788 16.875 13.125ZM36.875 20C36.875 23.3376 35.8853 26.6002 34.0311 29.3752C32.1768 32.1503 29.5413 34.3132 26.4578 35.5905C23.3743 36.8677 19.9813 37.2019 16.7079 36.5508C13.4344 35.8996 10.4276 34.2924 8.06758 31.9324C5.70757 29.5724 4.10038 26.5656 3.44926 23.2921C2.79813 20.0187 3.13231 16.6257 4.40954 13.5422C5.68677 10.4587 7.84968 7.8232 10.6248 5.96895C13.3998 4.1147 16.6624 3.125 20 3.125C24.474 3.12996 28.7634 4.90945 31.927 8.07305C35.0906 11.2367 36.87 15.526 36.875 20ZM33.125 20C33.125 17.4041 32.3552 14.8665 30.913 12.7081C29.4709 10.5497 27.421 8.86748 25.0227 7.87408C22.6244 6.88068 19.9854 6.62076 17.4394 7.12719C14.8934 7.63362 12.5548 8.88366 10.7192 10.7192C8.88367 12.5548 7.63363 14.8934 7.1272 17.4394C6.62077 19.9854 6.88069 22.6244 7.87409 25.0227C8.86749 27.421 10.5498 29.4708 12.7081 30.913C14.8665 32.3552 17.4041 33.125 20 33.125C23.4798 33.1213 26.8161 31.7373 29.2767 29.2767C31.7373 26.8161 33.1213 23.4798 33.125 20ZM21.875 25.7312V20.625C21.875 19.7962 21.5458 19.0013 20.9597 18.4153C20.3737 17.8292 19.5788 17.5 18.75 17.5C18.3072 17.4993 17.8785 17.6554 17.5397 17.9406C17.201 18.2257 16.9741 18.6216 16.8992 19.058C16.8243 19.4944 16.9064 19.9433 17.1307 20.325C17.3551 20.7068 17.7073 20.9968 18.125 21.1438V26.25C18.125 27.0788 18.4542 27.8737 19.0403 28.4597C19.6263 29.0458 20.4212 29.375 21.25 29.375C21.6928 29.3757 22.1215 29.2196 22.4603 28.9344C22.7991 28.6493 23.026 28.2534 23.1008 27.817C23.1757 27.3806 23.0937 26.9317 22.8693 26.55C22.6449 26.1682 22.2927 25.8782 21.875 25.7312Z" fill="white"/>
</svg>
