<svg width="102" height="24" viewBox="0 0 102 24" fill="none" xmlns="http://www.w3.org/2000/svg">
<path d="M10.9755 23.288C10.1649 23.288 9.54621 23.064 9.11954 22.616C8.69288 22.168 8.47954 21.5387 8.47954 20.728V4.536H2.81554C2.15421 4.536 1.64221 4.35467 1.27954 3.992C0.916876 3.62933 0.735543 3.128 0.735543 2.488C0.735543 1.82667 0.916876 1.32533 1.27954 0.983999C1.64221 0.621332 2.15421 0.439999 2.81554 0.439999H19.1035C19.7649 0.439999 20.2769 0.621332 20.6395 0.983999C21.0022 1.32533 21.1835 1.82667 21.1835 2.488C21.1835 3.128 21.0022 3.62933 20.6395 3.992C20.2769 4.35467 19.7649 4.536 19.1035 4.536H13.4395V20.728C13.4395 21.5387 13.2262 22.168 12.7995 22.616C12.3942 23.064 11.7862 23.288 10.9755 23.288ZM25.9143 23C25.0823 23 24.4423 22.776 23.9943 22.328C23.5463 21.88 23.3223 21.24 23.3223 20.408V3.032C23.3223 2.2 23.5463 1.56 23.9943 1.112C24.4423 0.663999 25.0823 0.439999 25.9143 0.439999H37.0823C37.7223 0.439999 38.2023 0.610666 38.5223 0.952C38.8636 1.272 39.0343 1.74133 39.0343 2.36C39.0343 3 38.8636 3.49067 38.5223 3.832C38.2023 4.152 37.7223 4.312 37.0823 4.312H28.0583V9.592H36.3463C37.0076 9.592 37.4983 9.76267 37.8183 10.104C38.1596 10.424 38.3303 10.904 38.3303 11.544C38.3303 12.184 38.1596 12.6747 37.8183 13.016C37.4983 13.336 37.0076 13.496 36.3463 13.496H28.0583V19.128H37.0823C37.7223 19.128 38.2023 19.2987 38.5223 19.64C38.8636 19.96 39.0343 20.4293 39.0343 21.048C39.0343 21.688 38.8636 22.1787 38.5223 22.52C38.2023 22.84 37.7223 23 37.0823 23H25.9143ZM45.1933 23.288C44.3826 23.288 43.764 23.064 43.3373 22.616C42.9106 22.168 42.6973 21.5387 42.6973 20.728V2.968C42.6973 2.136 42.9106 1.50667 43.3373 1.08C43.7853 0.653332 44.4146 0.439999 45.2253 0.439999H53.0013C55.5186 0.439999 57.46 1.048 58.8253 2.264C60.1906 3.48 60.8733 5.176 60.8733 7.352C60.8733 8.76 60.564 9.976 59.9453 11C59.3266 12.024 58.4306 12.8133 57.2573 13.368C56.1053 13.9227 54.6866 14.2 53.0013 14.2L53.2573 13.656H54.5693C55.4653 13.656 56.244 13.88 56.9053 14.328C57.588 14.7547 58.1746 15.416 58.6653 16.312L60.6493 19.992C60.948 20.5253 61.0866 21.048 61.0653 21.56C61.044 22.072 60.852 22.488 60.4893 22.808C60.1266 23.128 59.5933 23.288 58.8893 23.288C58.1853 23.288 57.6093 23.1387 57.1613 22.84C56.7346 22.5413 56.3506 22.0827 56.0093 21.464L52.9373 15.8C52.6173 15.2027 52.2226 14.7973 51.7533 14.584C51.3053 14.3707 50.7506 14.264 50.0893 14.264H47.6573V20.728C47.6573 21.5387 47.444 22.168 47.0173 22.616C46.612 23.064 46.004 23.288 45.1933 23.288ZM47.6573 10.68H52.1053C53.428 10.68 54.42 10.4133 55.0813 9.88C55.764 9.34667 56.1053 8.54667 56.1053 7.48C56.1053 6.43467 55.764 5.64533 55.0813 5.112C54.42 4.57867 53.428 4.312 52.1053 4.312H47.6573V10.68ZM72.2255 23.288C71.4149 23.288 70.7962 23.064 70.3695 22.616C69.9429 22.168 69.7295 21.5387 69.7295 20.728V4.536H64.0655C63.4042 4.536 62.8922 4.35467 62.5295 3.992C62.1669 3.62933 61.9855 3.128 61.9855 2.488C61.9855 1.82667 62.1669 1.32533 62.5295 0.983999C62.8922 0.621332 63.4042 0.439999 64.0655 0.439999H80.3535C81.0149 0.439999 81.5269 0.621332 81.8895 0.983999C82.2522 1.32533 82.4335 1.82667 82.4335 2.488C82.4335 3.128 82.2522 3.62933 81.8895 3.992C81.5269 4.35467 81.0149 4.536 80.3535 4.536H74.6895V20.728C74.6895 21.5387 74.4762 22.168 74.0495 22.616C73.6442 23.064 73.0362 23.288 72.2255 23.288ZM91.9175 23.352C91.0215 23.352 90.1042 23.2773 89.1655 23.128C88.2482 23 87.3629 22.808 86.5095 22.552C85.6775 22.296 84.9309 21.976 84.2695 21.592C83.8002 21.336 83.4695 21.0053 83.2775 20.6C83.0855 20.1733 83.0109 19.7467 83.0535 19.32C83.1175 18.8933 83.2775 18.52 83.5335 18.2C83.8109 17.8587 84.1522 17.6453 84.5575 17.56C84.9842 17.4533 85.4535 17.528 85.9655 17.784C86.8402 18.2747 87.7895 18.6373 88.8135 18.872C89.8589 19.1067 90.8935 19.224 91.9175 19.224C93.4749 19.224 94.5842 18.9893 95.2455 18.52C95.9069 18.0293 96.2375 17.4213 96.2375 16.696C96.2375 16.0773 96.0029 15.5867 95.5335 15.224C95.0642 14.8613 94.2429 14.552 93.0695 14.296L89.4535 13.528C87.4055 13.1013 85.8802 12.376 84.8775 11.352C83.8962 10.3067 83.4055 8.94133 83.4055 7.256C83.4055 6.18933 83.6295 5.21867 84.0775 4.344C84.5255 3.46933 85.1549 2.712 85.9655 2.072C86.7762 1.432 87.7362 0.941332 88.8455 0.599998C89.9762 0.258666 91.2135 0.0879993 92.5575 0.0879993C93.7522 0.0879993 94.9255 0.237333 96.0775 0.535999C97.2295 0.813333 98.2429 1.22933 99.1175 1.784C99.5442 2.04 99.8322 2.37067 99.9815 2.776C100.152 3.16 100.206 3.55467 100.142 3.96C100.099 4.344 99.9389 4.68533 99.6615 4.984C99.4055 5.28267 99.0749 5.47467 98.6695 5.56C98.2642 5.64533 97.7735 5.54933 97.1975 5.272C96.4935 4.90933 95.7469 4.64267 94.9575 4.472C94.1682 4.30133 93.3575 4.216 92.5255 4.216C91.6295 4.216 90.8615 4.33333 90.2215 4.568C89.6029 4.80267 89.1229 5.13333 88.7815 5.56C88.4615 5.98667 88.3015 6.47733 88.3015 7.032C88.3015 7.65067 88.5255 8.152 88.9735 8.536C89.4215 8.92 90.2002 9.22933 91.3095 9.464L94.9255 10.232C97.0162 10.68 98.5735 11.4053 99.5975 12.408C100.622 13.3893 101.134 14.6907 101.134 16.312C101.134 17.3787 100.92 18.3493 100.494 19.224C100.067 20.0773 99.4482 20.8133 98.6375 21.432C97.8269 22.0507 96.8562 22.5307 95.7255 22.872C94.5949 23.192 93.3255 23.352 91.9175 23.352Z" fill="#047857"/>
</svg>
