<svg width="512" height="208" viewBox="0 0 512 208" fill="none" xmlns="http://www.w3.org/2000/svg">
<path d="M109.351 43.9817C110.206 44.1859 111.093 44.2261 111.963 44.1C112.676 45.3952 113.271 46.7521 113.74 48.1541C114.29 49.9308 114.68 51.7534 114.903 53.5998C108.992 54.541 103.21 56.1683 97.6755 58.4488C94.9796 59.5214 95.0653 63.1149 97.7486 64.8737L142.318 94.0891C145.002 95.8479 148.331 94.493 148.239 91.593C148.109 85.5105 147.256 79.465 145.695 73.5845C147.403 73.0792 149.152 72.7253 150.922 72.5269C152.395 72.3977 153.876 72.4017 155.348 72.5387C155.769 74.0477 156.68 75.3735 157.938 76.3064C159.196 77.2393 160.73 77.7261 162.296 77.6897C163.862 77.6533 165.371 77.0959 166.584 76.1055C167.798 75.1152 168.647 73.7485 168.996 72.2216C169.346 70.6948 169.176 69.0949 168.515 67.6752C167.853 66.2555 166.737 65.0969 165.343 64.3827C163.949 63.6686 162.356 63.4397 160.817 63.7321C159.278 64.0246 157.881 64.8218 156.846 65.9976C154.691 65.7308 152.514 65.6896 150.35 65.8747C148.032 66.1269 145.741 66.5935 143.508 67.2685C141.866 62.8092 138.955 58.9274 135.135 56.1006C130.947 53.7487 126.162 52.6732 121.37 53.0064C121.094 50.6307 120.596 48.286 119.883 46.0031C119.19 43.9452 118.283 41.9653 117.179 40.0956C117.786 38.7886 117.975 37.3262 117.72 35.9079C117.465 34.4896 116.779 33.1846 115.754 32.171C114.73 31.1574 113.418 30.4846 111.997 30.2445C110.576 30.0044 109.116 30.2086 107.815 30.8294C106.515 31.4501 105.437 32.4571 104.731 33.7128C104.024 34.9686 103.722 36.4119 103.866 37.8457C104.009 39.2795 104.592 40.634 105.535 41.7242C106.477 42.8144 107.733 43.5872 109.131 43.9371L109.351 43.9817Z" fill="#FFFEFE"/>
<path d="M143.982 140.118L137.605 135.937C141.732 128.883 144.759 121.241 146.582 113.275L153.474 113.857C154.575 113.951 155.668 113.604 156.513 112.892C157.359 112.179 157.886 111.161 157.98 110.06C158.074 108.959 157.727 107.865 157.015 107.02C156.303 106.175 155.285 105.647 154.184 105.553L140.806 103.161L90.1026 69.9256L82.2935 58.4297C81.7679 57.4576 80.8777 56.734 79.8187 56.4183C78.7597 56.1025 77.6186 56.2203 76.6465 56.7459C75.6744 57.2714 74.9509 58.1616 74.6351 59.2206C74.3193 60.2796 74.4372 61.4207 74.9627 62.3928L78.3624 68.6069C71.7986 73.452 66.0069 79.2637 61.1846 85.8442L54.5636 81.5042C53.6394 80.8984 52.5124 80.6845 51.4305 80.9097C50.3486 81.1348 49.4005 81.7805 48.7947 82.7047C48.1888 83.6289 47.975 84.7559 48.2001 85.8378C48.4253 86.9197 49.071 87.8679 49.9952 88.4737L56.7207 92.8822C52.1201 100.597 49.2827 109.235 48.4117 118.175L38.8103 118.458C38.221 118.397 37.6255 118.462 37.0635 118.649C36.5015 118.837 35.9859 119.142 35.5512 119.544C35.1164 119.947 34.7725 120.437 34.5423 120.983C34.3122 121.529 34.2011 122.118 34.2164 122.71C34.2318 123.302 34.3733 123.885 34.6315 124.418C34.8897 124.951 35.2586 125.423 35.7136 125.802C36.1687 126.182 36.6994 126.46 37.2704 126.618C37.8413 126.776 38.4394 126.81 39.0248 126.719L48.3834 126.427C48.9724 132.192 50.7239 137.777 53.5322 142.846C56.3405 147.915 60.1473 152.363 64.7225 155.919L107.209 91.103L114.179 95.6714L71.692 160.488C76.7675 163.269 82.3537 164.995 88.114 165.56C93.8743 166.125 99.6893 165.518 105.209 163.775L108.72 172.404C108.922 172.913 109.223 173.377 109.606 173.77C109.988 174.162 110.443 174.476 110.947 174.693C111.45 174.909 111.991 175.025 112.539 175.032C113.087 175.04 113.631 174.939 114.14 174.736C114.649 174.533 115.114 174.232 115.506 173.85C115.899 173.468 116.213 173.012 116.429 172.509C116.646 172.006 116.761 171.464 116.769 170.917C116.776 170.369 116.676 169.825 116.473 169.315L112.961 160.537C120.814 156.154 127.599 150.087 132.827 142.77L139.414 147.087C140.338 147.693 141.465 147.907 142.547 147.682C143.629 147.456 144.577 146.811 145.182 145.887C145.788 144.962 146.002 143.835 145.777 142.753C145.552 141.672 144.906 140.723 143.982 140.118ZM79.7284 86.7402C80.6094 85.3962 81.8691 84.3437 83.3482 83.7156C84.8274 83.0876 86.4596 82.9123 88.0384 83.2119C89.6172 83.5115 91.0717 84.2725 92.218 85.3987C93.3643 86.525 94.1508 87.9658 94.4782 89.5391C94.8056 91.1124 94.6591 92.7474 94.0573 94.2374C93.4554 95.7274 92.4253 97.0055 91.097 97.9101C89.7688 98.8146 88.2022 99.3049 86.5953 99.3191C84.9884 99.3333 83.4133 98.8706 82.0694 97.9897C80.2672 96.8083 79.0081 94.9595 78.569 92.8498C78.13 90.7401 78.547 88.5424 79.7284 86.7402ZM68.2935 127.67C67.2045 126.956 66.3517 125.936 65.8428 124.737C65.334 123.539 65.1919 122.216 65.4347 120.937C65.6774 119.658 66.294 118.479 67.2066 117.55C68.1191 116.622 69.2866 115.984 70.5613 115.719C71.8361 115.454 73.1609 115.572 74.3682 116.06C75.5755 116.548 76.611 117.382 77.344 118.459C78.0769 119.535 78.4742 120.804 78.4857 122.106C78.4971 123.408 78.1223 124.684 77.4085 125.773C76.4513 127.234 74.9532 128.254 73.2438 128.609C71.5344 128.965 69.7537 128.627 68.2935 127.67ZM97.6698 146.926C96.5749 146.218 95.7148 145.201 95.1986 144.004C94.6824 142.807 94.5333 141.483 94.7703 140.201C95.0073 138.919 95.6197 137.736 96.5298 136.802C97.4398 135.869 98.6067 135.226 99.8823 134.957C101.158 134.687 102.485 134.802 103.695 135.288C104.905 135.773 105.944 136.607 106.679 137.683C107.415 138.76 107.814 140.03 107.827 141.334C107.84 142.638 107.465 143.916 106.75 145.007C105.793 146.467 104.295 147.487 102.585 147.843C100.876 148.198 99.0952 147.861 97.635 146.903L97.6698 146.926ZM119.356 122.431C118.012 121.55 116.96 120.29 116.332 118.811C115.703 117.332 115.528 115.7 115.828 114.121C116.127 112.542 116.888 111.088 118.015 109.941C119.141 108.795 120.582 108.009 122.155 107.681C123.728 107.354 125.363 107.5 126.853 108.102C128.343 108.704 129.621 109.734 130.526 111.062C131.43 112.391 131.921 113.957 131.935 115.564C131.949 117.171 131.487 118.746 130.606 120.09C129.424 121.892 127.575 123.151 125.466 123.59C123.356 124.029 121.158 123.612 119.356 122.431Z" fill="#FFFEFE"/>
<path d="M238.432 136.864C236 136.864 234.144 136.192 232.864 134.848C231.584 133.504 230.944 131.616 230.944 129.184V80.608H213.952C211.968 80.608 210.432 80.064 209.344 78.976C208.256 77.888 207.712 76.384 207.712 74.464C207.712 72.48 208.256 70.976 209.344 69.952C210.432 68.864 211.968 68.32 213.952 68.32H262.816C264.8 68.32 266.336 68.864 267.424 69.952C268.512 70.976 269.056 72.48 269.056 74.464C269.056 76.384 268.512 77.888 267.424 78.976C266.336 80.064 264.8 80.608 262.816 80.608H245.824V129.184C245.824 131.616 245.184 133.504 243.904 134.848C242.688 136.192 240.864 136.864 238.432 136.864ZM283.248 136C280.752 136 278.832 135.328 277.488 133.984C276.144 132.64 275.472 130.72 275.472 128.224V76.096C275.472 73.6 276.144 71.68 277.488 70.336C278.832 68.992 280.752 68.32 283.248 68.32H316.752C318.672 68.32 320.112 68.832 321.072 69.856C322.096 70.816 322.608 72.224 322.608 74.08C322.608 76 322.096 77.472 321.072 78.496C320.112 79.456 318.672 79.936 316.752 79.936H289.68V95.776H314.544C316.528 95.776 318 96.288 318.96 97.312C319.984 98.272 320.496 99.712 320.496 101.632C320.496 103.552 319.984 105.024 318.96 106.048C318 107.008 316.528 107.488 314.544 107.488H289.68V124.384H316.752C318.672 124.384 320.112 124.896 321.072 125.92C322.096 126.88 322.608 128.288 322.608 130.144C322.608 132.064 322.096 133.536 321.072 134.56C320.112 135.52 318.672 136 316.752 136H283.248ZM341.085 136.864C338.653 136.864 336.797 136.192 335.517 134.848C334.237 133.504 333.597 131.616 333.597 129.184V75.904C333.597 73.408 334.237 71.52 335.517 70.24C336.861 68.96 338.749 68.32 341.181 68.32H364.509C372.061 68.32 377.885 70.144 381.981 73.792C386.077 77.44 388.125 82.528 388.125 89.056C388.125 93.28 387.197 96.928 385.341 100C383.485 103.072 380.797 105.44 377.277 107.104C373.821 108.768 369.565 109.6 364.509 109.6L365.277 107.968H369.213C371.901 107.968 374.237 108.64 376.221 109.984C378.269 111.264 380.029 113.248 381.501 115.936L387.453 126.976C388.349 128.576 388.765 130.144 388.701 131.68C388.637 133.216 388.061 134.464 386.973 135.424C385.885 136.384 384.285 136.864 382.173 136.864C380.061 136.864 378.333 136.416 376.989 135.52C375.709 134.624 374.557 133.248 373.533 131.392L364.317 114.4C363.357 112.608 362.173 111.392 360.765 110.752C359.421 110.112 357.757 109.792 355.773 109.792H348.477V129.184C348.477 131.616 347.837 133.504 346.557 134.848C345.341 136.192 343.517 136.864 341.085 136.864ZM348.477 99.04H361.821C365.789 99.04 368.765 98.24 370.749 96.64C372.797 95.04 373.821 92.64 373.821 89.44C373.821 86.304 372.797 83.936 370.749 82.336C368.765 80.736 365.789 79.936 361.821 79.936H348.477V99.04ZM422.182 136.864C419.75 136.864 417.894 136.192 416.614 134.848C415.334 133.504 414.694 131.616 414.694 129.184V80.608H397.702C395.718 80.608 394.182 80.064 393.094 78.976C392.006 77.888 391.462 76.384 391.462 74.464C391.462 72.48 392.006 70.976 393.094 69.952C394.182 68.864 395.718 68.32 397.702 68.32H446.566C448.55 68.32 450.086 68.864 451.174 69.952C452.262 70.976 452.806 72.48 452.806 74.464C452.806 76.384 452.262 77.888 451.174 78.976C450.086 80.064 448.55 80.608 446.566 80.608H429.574V129.184C429.574 131.616 428.934 133.504 427.654 134.848C426.438 136.192 424.614 136.864 422.182 136.864ZM481.258 137.056C478.57 137.056 475.818 136.832 473.002 136.384C470.25 136 467.594 135.424 465.034 134.656C462.538 133.888 460.298 132.928 458.314 131.776C456.906 131.008 455.914 130.016 455.338 128.8C454.762 127.52 454.538 126.24 454.666 124.96C454.858 123.68 455.338 122.56 456.106 121.6C456.938 120.576 457.962 119.936 459.178 119.68C460.458 119.36 461.866 119.584 463.402 120.352C466.026 121.824 468.874 122.912 471.946 123.616C475.082 124.32 478.186 124.672 481.258 124.672C485.93 124.672 489.258 123.968 491.242 122.56C493.226 121.088 494.218 119.264 494.218 117.088C494.218 115.232 493.514 113.76 492.106 112.672C490.698 111.584 488.234 110.656 484.714 109.888L473.866 107.584C467.722 106.304 463.146 104.128 460.138 101.056C457.194 97.92 455.722 93.824 455.722 88.768C455.722 85.568 456.394 82.656 457.738 80.032C459.082 77.408 460.97 75.136 463.402 73.216C465.834 71.296 468.714 69.824 472.042 68.8C475.434 67.776 479.146 67.264 483.178 67.264C486.762 67.264 490.282 67.712 493.738 68.608C497.194 69.44 500.234 70.688 502.858 72.352C504.138 73.12 505.002 74.112 505.45 75.328C505.962 76.48 506.122 77.664 505.93 78.88C505.802 80.032 505.322 81.056 504.49 81.952C503.722 82.848 502.73 83.424 501.514 83.68C500.298 83.936 498.826 83.648 497.098 82.816C494.986 81.728 492.746 80.928 490.378 80.416C488.01 79.904 485.578 79.648 483.082 79.648C480.394 79.648 478.09 80 476.17 80.704C474.314 81.408 472.874 82.4 471.85 83.68C470.89 84.96 470.41 86.432 470.41 88.096C470.41 89.952 471.082 91.456 472.426 92.608C473.77 93.76 476.106 94.688 479.434 95.392L490.282 97.696C496.554 99.04 501.226 101.216 504.298 104.224C507.37 107.168 508.906 111.072 508.906 115.936C508.906 119.136 508.266 122.048 506.986 124.672C505.706 127.232 503.85 129.44 501.418 131.296C498.986 133.152 496.074 134.592 492.682 135.616C489.29 136.576 485.482 137.056 481.258 137.056Z" fill="white"/>
</svg>
